# xmcd
#
# Track frame offsets:
#	150
#	16382
#	34547
#	53030
#	78010
#	96760
#	118702
#	142457
#	158885
#	176565
#	204177
#	227250
#
# Disc length: 3421 seconds
#
# Revision: 1
# Processed by: cddbd v1.4b42PL1 Copyright (c) Steve Scherf et al.
# Submitted via: audiograbber 1.80
#
DISCID=8e0d5b0c
DTITLE=Jill West and Blues Attack - Code Blue
DYEAR=1900
DGENRE=
TTITLE0=Yes Indeed
TTITLE1=24 Hours
TTITLE2=You're the One
TTITLE3=The Mirror
TTITLE4=Perfect Fit
TTITLE5=He's No Good
TTITLE6=Hound Dog
TTITLE7=Wrappin' Up Our Love
TTITLE8=Fever
TTITLE9=Queen Bee
TTITLE10=Make Up My Mind
TTITLE11=Sweet Home Chicago - Hideaway
EXTD=
EXTT0=
EXTT1=
EXTT2=
EXTT3=
EXTT4=
EXTT5=
EXTT6=
EXTT7=
EXTT8=
EXTT9=
EXTT10=
EXTT11=
PLAYORDER=
